<?xml version="1.0" standalone="no"?>
<!DOCTYPE svg PUBLIC "-//W3C//DTD SVG 20010904//EN"
 "http://www.w3.org/TR/2001/REC-SVG-20010904/DTD/svg10.dtd">
<svg version="1.0" xmlns="http://www.w3.org/2000/svg"
 width="512.000000pt" height="512.000000pt" viewBox="0 0 512.000000 512.000000"
 preserveAspectRatio="xMidYMid meet">

<g transform="translate(0.000000,512.000000) scale(0.100000,-0.100000)"
fill="rgb(99 102 241)" stroke="none">
<path d="M2377 5109 c-862 -100 -1505 -852 -1464 -1709 18 -361 126 -648 363
-965 102 -137 173 -260 223 -390 89 -227 110 -375 111 -765 0 -303 5 -342 51
-436 36 -73 110 -147 184 -185 l65 -34 0 -107 c0 -185 34 -283 135 -383 65
-65 137 -105 223 -124 69 -15 514 -15 584 0 128 27 241 113 301 226 44 87 57
148 57 281 l0 107 50 24 c99 47 185 145 226 256 16 43 19 97 24 405 6 313 9
367 29 460 51 243 145 450 295 651 201 271 290 463 348 750 18 92 22 148 22
294 1 188 -8 263 -50 423 -111 428 -393 794 -787 1020 -286 163 -661 240 -990
201z m443 -314 c168 -34 349 -110 500 -210 114 -75 285 -251 364 -372 253
-387 295 -847 116 -1276 -38 -92 -107 -203 -217 -351 -189 -254 -307 -537
-351 -844 l-18 -127 -654 0 -654 0 -17 122 c-48 331 -164 602 -381 890 -133
175 -207 321 -253 498 -98 379 -31 773 190 1105 27 41 99 125 160 186 225 227
493 358 815 398 67 8 326 -4 400 -19z m390 -3626 c0 -138 -2 -155 -22 -191
-14 -24 -38 -48 -60 -59 -35 -18 -67 -19 -569 -19 l-531 0 -40 22 c-67 38 -78
72 -78 248 l0 150 650 0 650 0 0 -151z m-300 -659 c0 -112 -20 -159 -80 -190
-36 -18 -58 -20 -271 -20 -221 0 -233 1 -271 22 -60 34 -78 78 -78 188 l0 90
350 0 350 0 0 -90z"/>
<path d="M2455 4306 c-84 -21 -147 -57 -211 -121 -84 -83 -134 -200 -134 -311
0 -80 72 -154 150 -154 50 0 107 35 130 80 11 21 20 53 20 70 0 74 76 150 149
150 51 0 108 -35 131 -80 40 -78 15 -156 -69 -209 -71 -46 -138 -122 -174
-198 -27 -60 -31 -80 -35 -178 -4 -99 -2 -116 17 -153 24 -47 80 -82 131 -82
50 0 107 35 130 80 15 29 20 59 20 115 0 96 14 123 89 174 247 168 282 490 76
697 -112 113 -269 158 -420 120z"/>
<path d="M2488 2799 c-43 -22 -78 -81 -78 -129 0 -50 35 -107 80 -130 21 -11
53 -20 70 -20 76 0 150 74 150 150 0 50 -35 107 -80 130 -49 25 -94 25 -142
-1z"/>
<path d="M224 4421 c-52 -32 -74 -68 -74 -123 0 -52 16 -92 47 -121 28 -24
339 -137 380 -137 63 0 127 51 144 114 12 46 -7 109 -44 144 -29 27 -341 142
-387 142 -19 0 -49 -9 -66 -19z"/>
<path d="M4621 4376 c-144 -54 -168 -66 -194 -99 -37 -45 -42 -113 -12 -164
23 -39 82 -73 127 -73 41 0 353 113 381 137 35 33 49 73 45 130 -5 57 -28 92
-80 119 -46 24 -97 14 -267 -50z"/>
<path d="M78 3599 c-43 -22 -78 -81 -78 -129 0 -50 35 -107 80 -130 35 -18 59
-20 220 -20 210 0 244 10 280 80 25 50 25 90 0 140 -36 71 -69 80 -282 80
-162 -1 -187 -3 -220 -21z"/>
<path d="M4598 3599 c-43 -22 -78 -81 -78 -129 0 -50 35 -107 80 -130 35 -18
59 -20 220 -20 161 0 185 2 220 20 45 23 80 80 80 130 0 50 -35 107 -80 130
-35 18 -58 20 -222 20 -162 -1 -187 -3 -220 -21z"/>
<path d="M376 2839 c-165 -61 -188 -74 -213 -123 -23 -43 -13 -129 18 -162 33
-35 71 -54 111 -54 44 0 357 115 385 142 37 35 57 98 44 144 -14 49 -27 66
-71 93 -53 32 -98 26 -274 -40z"/>
<path d="M4470 2879 c-44 -27 -57 -44 -71 -93 -12 -46 7 -109 44 -144 28 -26
343 -142 386 -142 74 0 132 56 139 133 4 57 -10 97 -45 130 -28 25 -340 137
-382 137 -20 0 -52 -10 -71 -21z"/>
</g>
</svg>
